# xmcd
#
# Track frame offsets:
#	150
#	13659
#	29311
#	43663
#	56275
#	69430
#	88056
#	96315
#	107132
#	118684
#	129924
#	136756
#	147279
#	162852
#	173769
#	190317
#	201021
#	210512
#	223536
#	231375
#	241120
#
# Disc length: 3380 seconds
#
# Revision: 1
# Processed by: cddbd v1.5.2PL0 Copyright (c) Steve Scherf et al.
# Submitted via: audiograbber 1.83.01
#
DISCID=230d3215
DTITLE=David Grier - All Star Bluegrass Jam Along
DYEAR=2007
DGENRE=Bluegrass
TTITLE0=Bill Cheatam
TTITLE1=Blackberry Blossom
TTITLE2=Black Mountain Rag
TTITLE3=Farewell Blues
TTITLE4=I'll Fly Away
TTITLE5=Footprints in the Snow
TTITLE6=All the Good Times Are Past and Gone
TTITLE7=In the Pines
TTITLE8=I Am a Pilgrim
TTITLE9=John Hardy
TTITLE10=Little Maggie
TTITLE11=New River Train
TTITLE12=Old Joe Clark
TTITLE13=Pretty Polly
TTITLE14=Don't That Road Look Rough and Rocky
TTITLE15=Sally Ann
TTITLE16=Sittin' on Top of the World
TTITLE17=Soldier's Joy
TTITLE18=Roll in My Sweet Baby's Arms
TTITLE19=Way Downtown
TTITLE20=Down in hte Willow Garden
EXTD=Homespun Tapes Series
EXTT0=
EXTT1=
EXTT2=
EXTT3=
EXTT4=
EXTT5=
EXTT6=
EXTT7=
EXTT8=
EXTT9=
EXTT10=
EXTT11=
EXTT12=
EXTT13=
EXTT14=
EXTT15=
EXTT16=
EXTT17=
EXTT18=
EXTT19=
EXTT20=
PLAYORDER=
